<svg xmlns="http://www.w3.org/2000/svg" version="1.1" viewBox="-5.0 -10.0 110.0 135.0">
    <path
        d="m41.789 74.594c-1.1523-0.37109-2.2812-0.84375-3.3672-1.3906l-7.4883 4.7695-8.9023-8.9023 4.7695-7.4883c-0.54688-1.0859-1.0195-2.2148-1.3906-3.3672l-8.6641-1.918v-4.1445l-11.746-0.003906c1.0859 23.137 19.715 41.766 42.852 42.852v-11.742h-4.1445z" />
    <path
        d="m70.844 44.176c-0.46094-1.668-1.1289-3.2773-1.9844-4.793l-0.63672-1.1172 4.2773-6.7344-4.0352-4.0352-6.7344 4.2773-1.1172-0.63672c-1.5117-0.85547-3.125-1.5234-4.793-1.9844l-1.2383-0.33984-1.7344-7.7734h-5.7031l-1.7344 7.7734-1.2383 0.33984c-1.668 0.46094-3.2773 1.1289-4.793 1.9844l-1.1172 0.63672-6.7344-4.2773-4.0352 4.0352 4.2773 6.7344-0.63672 1.1172c-0.85547 1.5117-1.5234 3.125-1.9844 4.793l-0.33984 1.2383-7.7734 1.7305v5.7031l7.7734 1.7344 0.33984 1.2383c0.46094 1.668 1.1289 3.2773 1.9844 4.793l0.63672 1.1172-4.2773 6.7305 4.0352 4.0352 6.7344-4.2773 1.1172 0.63672c1.5117 0.85547 3.125 1.5234 4.793 1.9844l1.2383 0.33984 1.7344 7.7734h5.7031l1.7344-7.7734 1.2383-0.33984c1.668-0.46094 3.2773-1.1289 4.793-1.9844l1.1172-0.63672 6.7344 4.2773 4.0352-4.0352-4.2773-6.7305 0.63672-1.1172c0.85547-1.5117 1.5234-3.125 1.9844-4.793l0.33984-1.2383 7.7734-1.7344v-5.7031l-7.7734-1.7305zm-20.844 16.492c-5.8789 0-10.668-4.793-10.668-10.668 0-5.8789 4.793-10.668 10.668-10.668 5.8789 0 10.668 4.793 10.668 10.668 0 5.8789-4.793 10.668-10.668 10.668z" />
    <path
        d="m95 47.852c-1.0859-23.137-19.715-41.766-42.852-42.852v11.742h4.1445l1.918 8.6641c1.1523 0.37109 2.2812 0.84375 3.3672 1.3906l7.4883-4.7695 8.9023 8.9023-4.7695 7.4883c0.54688 1.0859 1.0195 2.2148 1.3906 3.3672l8.6641 1.918v4.1445h11.742z" />
</svg>